[Header]
FileType HTR
DataType HTRS
FileVersion 1
NumSegments 22
NumFrames 5
DataFrameRate 24
EulerRotationOrder ZYX
CalibrationUnits mm
RotationUnits Degrees
GlobalAxisofGravity Y
BoneLengthAxis Y
ScaleFactor 1.0
[SegmentNames&Hierarchy]
reference	GLOBAL
Hips	reference
Spine	Hips
Spine1	Spine
Neck	Spine1
Head	Neck
LeftShoulder	Spine1
LeftArm	LeftShoulder
LeftForeArm	LeftArm
LeftHand	LeftForeArm
RightShoulder	Spine1
RightArm	RightShoulder
RightForeArm	RightArm
RightHand	RightForeArm
LeftUpLeg	Hips
LeftLeg	LeftUpLeg
LeftFoot	LeftLeg
LeftToeBase	LeftFoot
RightUpLeg	Hips
RightLeg	RightUpLeg
RightFoot	RightLeg
RightToeBase	RightFoot
[BasePosition]
reference	0	0	0	0	0	0	1
Hips	0	0	0	0	0	0	1
Spine	0	0	0	0	-0	90	1
Spine1	0	0	0	0	0	0	1
Neck	0	0	0	-7.352327771	-7.352327771	90	1
Head	0	0	0	0	-0	90	1
LeftShoulder	0	0	0	0	0	0	1
LeftArm	0	0	0	0	0	0	1
LeftForeArm	0	0	0	0	0	0	1
LeftHand	0	0	0	0	0	0	1
RightShoulder	0	0	0	0	-0	180	1
RightArm	0	0	0	0	-0	180	1
RightForeArm	0	0	0	0	-0	180	1
RightHand	0	0	0	0	-0	180	1
LeftUpLeg	0	0	0	0	-0	-90	1
LeftLeg	0	0	0	0	-0	-90	1
LeftFoot	0	0	0	66.57146043	-66.57146043	-90	1
LeftToeBase	0	0	0	0	-90	0	1
RightUpLeg	0	0	0	0	-0	-90	1
RightLeg	0	0	0	0	-0	-90	1
RightFoot	0	0	0	66.57146043	-66.57146043	-90	1
RightToeBase	0	0	0	0	-90	0	1
[reference]
10	0	0	0	0	-0	0	1.0
11	0	0	0	0	-0	0	1.0
12	0	0	0	0	-0	0	1.0
13	0	0	0	0	-0	0	1.0
14	0	0	0	0	-0	0	1.0
[Hips]
10	9.358189583	8.659879684	1.41249907	-3.257804871	-104.5564346	6.384120941	1.0
11	9.358189583	8.659879684	1.443887234	-3.700945854	-103.6422806	7.124722004	1.0
12	9.358189583	8.659879684	1.477493286	-4.337619305	-102.1970444	7.868327141	1.0
13	9.358189583	8.659879684	1.516528368	-6.442626953	-100.5877838	9.759918213	1.0
14	9.358189583	8.659879684	1.579489112	-5.633722782	-98.4220047	9.327695847	1.0
[Spine]
10	0	0.7457100153	0	-14.68442822	1.193126202	-91.54747772	1.0
11	0	0.7457100153	0	-14.20198154	1.267816782	-91.4249649	1.0
12	0	0.7457100153	0	-14.33866978	1.591635704	-91.37282562	1.0
13	0	0.7457100153	0	-13.76829624	1.879276276	-91.25989532	1.0
14	0	0.7457100153	0	-13.64716339	2.105340958	-91.1504364	1.0
[Spine1]
10	0	2.140589952	0	14.10321236	0.1288384199	2.269595385	1.0
11	0	2.140589952	0	13.89609909	0.2107473016	2.464192152	1.0
12	0	2.140589952	0	13.79521275	0.3306788206	2.122289658	1.0
13	0	2.140589952	0	13.71128559	0.4096577466	2.21958828	1.0
14	0	2.140589952	0	13.79014492	0.50409168	1.918019295	1.0
[Neck]
10	0	2.32246995	0	-12.1700716	10.37890816	-89.96037292	1.0
11	0	2.32246995	0	-12.51768398	9.814143181	-89.96359253	1.0
12	0	2.32246995	0	-12.74297428	8.989027977	-89.91916656	1.0
13	0	2.32246995	0	-13.12683773	8.070157051	-90.08398438	1.0
14	0	2.32246995	0	-13.48749828	6.985337734	-90.24484253	1.0
[Head]
10	0	1.409579992	0.1818799973	-2.51441431	3.511089563	-93.37515259	1.0
11	0	1.409579992	0.1818799973	-2.571048021	2.919246197	-93.34854889	1.0
12	0	1.409579992	0.1818799973	-2.679366589	2.059142113	-93.39524841	1.0
13	0	1.409579992	0.1818799973	-2.690901756	1.088410854	-93.19016266	1.0
14	0	1.409579992	0.1818799973	-2.55766058	-0.05277876556	-92.97648621	1.0
[LeftShoulder]
10	0.3668199778	1.946700096	-0.02662999928	-16.38815308	-13.09552956	-4.164048195	1.0
11	0.3668199778	1.946700096	-0.02662999928	-15.85552502	-12.96829319	-3.874864817	1.0
12	0.3668199778	1.946700096	-0.02662999928	-15.76609612	-13.04240513	-3.503598452	1.0
13	0.3668199778	1.946700096	-0.02662999928	-15.94003773	-12.95876026	-3.447977066	1.0
14	0.3668199778	1.946700096	-0.02662999928	-16.27405739	-13.16848183	-3.599552393	1.0
[LeftArm]
10	1.140689969	0	0	40.23737335	16.33123589	-75.30469513	1.0
11	1.140689969	0	0	39.34286118	15.90791416	-75.80122375	1.0
12	1.140689969	0	0	38.7411499	16.11743546	-75.96741486	1.0
13	1.140689969	0	0	38.40052414	16.53934097	-76.02217865	1.0
14	1.140689969	0	0	38.16323853	17.24025345	-75.83175659	1.0
[LeftForeArm]
10	2.749800205	0	0	-13.58238792	-14.27789879	2.203824997	1.0
11	2.749800205	0	0	-13.44571877	-14.95174313	2.302288771	1.0
12	2.749800205	0	0	-13.19227123	-15.59810352	2.312300682	1.0
13	2.749800205	0	0	-13.21339607	-15.86382961	2.21175909	1.0
14	2.749800205	0	0	-13.1560173	-15.87271023	2.008855343	1.0
[LeftHand]
10	2.295179844	0	0	-13.18167305	-4.835777283	-2.94672823	1.0
11	2.295179844	0	0	-13.01365471	-5.00418663	-2.967269421	1.0
12	2.295179844	0	0	-12.74658585	-5.395553112	-2.733767509	1.0
13	2.295179844	0	0	-12.77224541	-5.665138245	-2.684649229	1.0
14	2.295179844	0	0	-12.73140526	-5.744501591	-2.877529621	1.0
[RightShoulder]
10	-0.3601199985	1.946700096	-0.02662999928	-6.634961605	3.244812012	177.0259552	1.0
11	-0.3601199985	1.946700096	-0.02662999928	-6.543748379	3.394443512	177.2420197	1.0
12	-0.3601199985	1.946700096	-0.02662999928	-6.356010437	3.439063072	177.5379333	1.0
13	-0.3601199985	1.946700096	-0.02662999928	-6.389433384	3.623264074	177.6326752	1.0
14	-0.3601199985	1.946700096	-0.02662999928	-6.393301487	3.84904027	177.6977844	1.0
[RightArm]
10	-1.140689969	0	0	53.41513824	-2.854660511	-98.29854584	1.0
11	-1.140689969	0	0	53.50606155	-2.819633961	-98.4066925	1.0
12	-1.140689969	0	0	53.58063126	-2.883574963	-98.55963898	1.0
13	-1.140689969	0	0	53.53337097	-3.111320496	-98.62308502	1.0
14	-1.140689969	0	0	53.67572784	-3.303483486	-98.69742584	1.0
[RightForeArm]
10	-2.749800205	0	0	-3.524017096	11.38633347	176.9971619	1.0
11	-2.749800205	0	0	-3.495586395	11.18355179	177.2389984	1.0
12	-2.749800205	0	0	-2.690922737	10.73313236	177.7264252	1.0
13	-2.749800205	0	0	-2.306803226	10.44799328	178.1062622	1.0
14	-2.749800205	0	0	-2.697466373	10.36161327	178.0810242	1.0
[RightHand]
10	-2.295179844	0	0	-3.460533381	6.224606991	175.6736298	1.0
11	-2.295179844	0	0	-3.434329987	5.845504284	175.9041138	1.0
12	-2.295179844	0	0	-2.716558456	6.553544521	175.8258362	1.0
13	-2.295179844	0	0	-2.372661114	6.675393105	175.9059296	1.0
14	-2.295179844	0	0	-2.728475094	6.31867075	176.2900543	1.0
[LeftUpLeg]
10	0.9094099998	0	0	4.867555141	3.791826963	89.71352386	1.0
11	0.9094099998	0	0	4.919516087	2.53990078	90.08656311	1.0
12	0.9094099998	0	0	3.50746417	1.448450208	89.5332489	1.0
13	0.9094099998	0	0	2.598784447	1.024201751	89.75269318	1.0
14	0.9094099998	0	0	0.7918223143	0.1047657058	89.15013123	1.0
[LeftLeg]
10	0	-4.498080254	0	2.258337736	-3.376505852	87.20017242	1.0
11	0	-4.498080254	0	2.866287947	-3.570491076	86.80189514	1.0
12	0	-4.498080254	0	4.290080547	-3.683434248	86.71943665	1.0
13	0	-4.498080254	0	6.546390533	-5.115772724	86.106987	1.0
14	0	-4.498080254	0	9.832336426	-5.202587128	86.06964111	1.0
[LeftFoot]
10	0	-3.729400158	0	-78.58137512	112.8018341	-31.87587357	1.0
11	0	-3.729400158	0	-78.85676575	113.1758575	-31.34928513	1.0
12	0	-3.729400158	0	-78.95744324	114.4435654	-31.55467796	1.0
13	0	-3.729400158	0	-79.44628906	114.3339767	-30.46842957	1.0
14	0	-3.729400158	0	-81.67416382	113.2485504	-31.95340729	1.0
[LeftToeBase]
10	0	-0.5911099911	1.364109993	0	0	0	1.0
11	0	-0.5911099911	1.364109993	0	0	0	1.0
12	0	-0.5911099911	1.364109993	0	0	0	1.0
13	0	-0.5911099911	1.364109993	0	0	0	1.0
14	0	-0.5911099911	1.364109993	0	0	0	1.0
[RightUpLeg]
10	-0.9094099998	0	0	-1.031148076	-1.402766466	91.56821442	1.0
11	-0.9094099998	0	0	-0.6597706079	-2.443551064	91.91835785	1.0
12	-0.9094099998	0	0	-1.754862547	-3.640946627	91.50480652	1.0
13	-0.9094099998	0	0	-2.338232994	-5.142217159	91.87474823	1.0
14	-0.9094099998	0	0	-4.350027561	-6.508868217	91.88327026	1.0
[RightLeg]
10	0	-4.498080254	0	6.091835499	-1.815778494	88.52253723	1.0
11	0	-4.498080254	0	6.384304047	-1.71417129	88.23329163	1.0
12	0	-4.498080254	0	7.572732925	-0.9717670679	88.27635193	1.0
13	0	-4.498080254	0	9.577399254	-1.930962443	87.28832245	1.0
14	0	-4.498080254	0	13.8209877	-2.064708471	85.92784119	1.0
[RightFoot]
10	0	-3.729400158	0	51.10777283	65.43695831	88.49433136	1.0
11	0	-3.729400158	0	50.64558029	65.10931396	88.24583435	1.0
12	0	-3.729400158	0	48.32403564	64.40224457	86.10805511	1.0
13	0	-3.729400158	0	48.69561768	64.3347702	87.69525909	1.0
14	0	-3.729400158	0	47.0745697	62.84928894	87.27977753	1.0
[RightToeBase]
10	0	-0.5911099911	1.364109993	0	0	0	1.0
11	0	-0.5911099911	1.364109993	0	0	0	1.0
12	0	-0.5911099911	1.364109993	0	0	0	1.0
13	0	-0.5911099911	1.364109993	0	0	0	1.0
14	0	-0.5911099911	1.364109993	0	0	0	1.0
[EndOfFile]
